<svg width="105" height="105" viewBox="0 0 105 105" fill="none" xmlns="http://www.w3.org/2000/svg">
<rect width="105" height="105" fill="#ECEBFF"/>
<path d="M83.1128 48.546C83.1128 49.252 82.8323 49.9291 82.3331 50.4283C81.8339 50.9276 81.1568 51.208 80.4508 51.208H24.549C23.843 51.208 23.1659 50.9276 22.6666 50.4283C22.1674 49.9291 21.887 49.252 21.887 48.546V43.2221C21.887 42.516 22.1674 41.839 22.6666 41.3397C23.1659 40.8405 23.843 40.5601 24.549 40.5601H80.4508C81.1568 40.5601 81.8339 40.8405 82.3331 41.3397C82.8323 41.839 83.1128 42.516 83.1128 43.2221V48.546Z" fill="white" stroke="#181830" stroke-width="2" stroke-linecap="round" stroke-linejoin="round"/>
<rect x="44.2402" y="41.623" width="16.5835" height="8.53675" fill="#4A3AFF"/>
<path d="M77.789 80.4904C77.789 81.1964 77.5086 81.8735 77.0094 82.3727C76.5101 82.8719 75.8331 83.1524 75.127 83.1524H29.8732C29.1672 83.1524 28.4901 82.8719 27.9909 82.3727C27.4916 81.8735 27.2112 81.1964 27.2112 80.4904V51.2085H77.789V80.4904Z" fill="white" stroke="#181830" stroke-width="2" stroke-linecap="round" stroke-linejoin="round"/>
<rect x="44.2402" y="52.2354" width="16.5835" height="29.9175" fill="#4A3AFF"/>
<path d="M43.1829 40.5601V83.1519Z" fill="white"/>
<path d="M43.1829 40.5601V83.1519" stroke="#181830" stroke-width="2" stroke-linecap="round" stroke-linejoin="round"/>
<path d="M61.8169 83.1519V40.5601Z" fill="white"/>
<path d="M61.8169 83.1519V40.5601" stroke="#181830" stroke-width="2" stroke-linecap="round" stroke-linejoin="round"/>
<path d="M66.9465 30.8173C64.9127 32.8537 55.1619 35.2362 55.1619 35.2362C55.1619 35.2362 57.5577 25.4853 59.5808 23.4515C60.0606 22.951 60.6355 22.5513 61.2718 22.2759C61.9082 22.0004 62.5931 21.8548 63.2864 21.8475C63.9797 21.8401 64.6676 21.9713 65.3095 22.2333C65.9515 22.4952 66.5347 22.8827 67.025 23.373C67.5153 23.8633 67.9028 24.4465 68.1648 25.0885C68.4267 25.7305 68.5579 26.4183 68.5506 27.1116C68.5433 27.805 68.3976 28.4899 68.1222 29.1262C67.8467 29.7625 67.447 30.3374 66.9465 30.8173V30.8173Z" fill="#4A3AFF" stroke="#181830" stroke-width="2" stroke-linecap="round" stroke-linejoin="round"/>
<path d="M38.0539 30.8186C40.0877 32.855 49.8386 35.2375 49.8386 35.2375C49.8386 35.2375 47.4428 25.4866 45.4197 23.4528C44.436 22.5099 43.1221 21.9898 41.7595 22.0042C40.397 22.0186 39.0943 22.5662 38.1308 23.5297C37.1673 24.4933 36.6196 25.7959 36.6053 27.1585C36.5909 28.521 37.1109 29.835 38.0539 30.8186Z" fill="#4A3AFF" stroke="#181830" stroke-width="2" stroke-linecap="round" stroke-linejoin="round"/>
</svg>
