<svg width="105" height="105" viewBox="0 0 105 105" fill="none" xmlns="http://www.w3.org/2000/svg">
<rect width="105" height="105" fill="#ECEBFF"/>
<path d="M52.5002 32.6024C55.9898 32.6024 58.8187 29.7735 58.8187 26.2839C58.8187 22.7942 55.9898 19.9653 52.5002 19.9653C49.0105 19.9653 46.1816 22.7942 46.1816 26.2839C46.1816 29.7735 49.0105 32.6024 52.5002 32.6024Z" fill="#4A3AFF" stroke="#181830" stroke-width="2" stroke-linecap="round" stroke-linejoin="round"/>
<path d="M65.1374 45.7184C64.4213 42.9103 62.7904 40.4207 60.502 38.6427C58.2137 36.8646 55.3983 35.8994 52.5003 35.8994C49.6024 35.8994 46.787 36.8646 44.4986 38.6427C42.2103 40.4207 40.5793 42.9103 39.8633 45.7184H65.1374Z" fill="white" stroke="#181830" stroke-width="2" stroke-linecap="round" stroke-linejoin="round"/>
<path d="M32.8427 71.9183C36.3323 71.9183 39.1612 69.0894 39.1612 65.5998C39.1612 62.1101 36.3323 59.2812 32.8427 59.2812C29.3531 59.2812 26.5242 62.1101 26.5242 65.5998C26.5242 69.0894 29.3531 71.9183 32.8427 71.9183Z" fill="#4A3AFF" stroke="#181830" stroke-width="2" stroke-linecap="round" stroke-linejoin="round"/>
<path d="M45.4797 85.0339C44.7636 82.2258 43.1327 79.7362 40.8443 77.9581C38.5559 76.1801 35.7406 75.2148 32.8426 75.2148C29.9447 75.2148 27.1293 76.1801 24.8409 77.9581C22.5526 79.7362 20.9216 82.2258 20.2056 85.0339H45.4797Z" fill="white" stroke="#181830" stroke-width="2" stroke-linecap="round" stroke-linejoin="round"/>
<path d="M72.1579 71.9183C75.6475 71.9183 78.4764 69.0894 78.4764 65.5998C78.4764 62.1101 75.6475 59.2812 72.1579 59.2812C68.6683 59.2812 65.8394 62.1101 65.8394 65.5998C65.8394 69.0894 68.6683 71.9183 72.1579 71.9183Z" fill="#4A3AFF" stroke="#181830" stroke-width="2" stroke-linecap="round" stroke-linejoin="round"/>
<path d="M84.7948 85.0339C84.0788 82.2258 82.4478 79.7362 80.1595 77.9581C77.8711 76.1801 75.0557 75.2148 72.1578 75.2148C69.2599 75.2148 66.4445 76.1801 64.1561 77.9581C61.8678 79.7362 60.2368 82.2258 59.5208 85.0339H84.7948Z" fill="white" stroke="#181830" stroke-width="2" stroke-linecap="round" stroke-linejoin="round"/>
<path d="M60.9248 72.167C55.5196 74.3453 49.4807 74.3453 44.0754 72.167" stroke="#181830" stroke-width="2" stroke-linecap="round" stroke-linejoin="round"/>
<path d="M65.1375 32.7622C68.558 35.0931 71.2693 38.3225 72.9727 42.095C74.6761 45.8675 75.3057 50.0368 74.7922 54.1441" stroke="#181830" stroke-width="2" stroke-linecap="round" stroke-linejoin="round"/>
<path d="M39.8629 32.7622C36.4424 35.0931 33.7311 38.3225 32.0277 42.095C30.3243 45.8675 29.6947 50.0368 30.2082 54.1441" stroke="#181830" stroke-width="2" stroke-linecap="round" stroke-linejoin="round"/>
</svg>
