<svg width="105" height="105" viewBox="0 0 105 105" fill="none" xmlns="http://www.w3.org/2000/svg">
<rect width="105" height="105" fill="#ECEBFF"/>
<path d="M44.4929 44.7289H63.0507C65.6913 42.7761 67.6484 40.0399 68.6435 36.9101C69.6386 33.7802 69.6208 30.4162 68.5928 27.297C67.5647 24.1778 65.5787 21.4625 62.9176 19.5377C60.2565 17.6128 57.056 16.5767 53.7718 16.5767C50.4875 16.5767 47.287 17.6128 44.6259 19.5377C41.9648 21.4625 39.9789 24.1778 38.9508 27.297C37.9227 30.4162 37.9049 33.7802 38.9 36.9101C39.8951 40.0399 41.8523 42.7761 44.4929 44.7289V44.7289Z" fill="#4A3AFF" stroke="#181830" stroke-width="2" stroke-linecap="round" stroke-linejoin="round"/>
<path d="M53.7717 82.1812V88.4233" stroke="#181830" stroke-width="2" stroke-linecap="round" stroke-linejoin="round"/>
<path d="M35.0457 32.2446H72.4983" stroke="#181830" stroke-width="2" stroke-linecap="round" stroke-linejoin="round"/>
<path d="M63.0509 44.7285L60.242 79.3129C60.1784 80.0961 59.8216 80.8264 59.2431 81.3581C58.6645 81.8898 57.9067 82.1837 57.1209 82.1812H50.4076C49.6218 82.1837 48.864 81.8898 48.2854 81.3581C47.7069 80.8264 47.3501 80.0961 47.2865 79.3129L44.4932 44.7285H63.0509Z" fill="white" stroke="#181830" stroke-width="2" stroke-linecap="round" stroke-linejoin="round"/>
<path d="M45.0017 50.9702H62.542" stroke="#181830" stroke-width="2" stroke-linecap="round" stroke-linejoin="round"/>
</svg>
