<svg width="105" height="105" viewBox="0 0 105 105" fill="none" xmlns="http://www.w3.org/2000/svg">
<rect width="105" height="105" fill="#ECEBFF"/>
<path d="M41.8565 44.9669C48.946 44.9669 54.6932 39.2197 54.6932 32.1302C54.6932 25.0406 48.946 19.2935 41.8565 19.2935C34.767 19.2935 29.0198 25.0406 29.0198 32.1302C29.0198 39.2197 34.767 44.9669 41.8565 44.9669Z" fill="white" stroke="#181830" stroke-width="2" stroke-linecap="round" stroke-linejoin="round"/>
<path d="M47.8975 70.6405H20.7139C20.7133 66.4402 21.9637 62.3349 24.3058 58.8482C26.6479 55.3615 29.9754 52.6514 33.864 51.0636C37.7526 49.4757 42.026 49.0821 46.1392 49.9329C50.2525 50.7837 54.0191 52.8404 56.9587 55.8406" fill="white"/>
<path d="M47.8975 70.6405H20.7139C20.7133 66.4402 21.9637 62.3349 24.3058 58.8482C26.6479 55.3615 29.9754 52.6514 33.864 51.0636C37.7526 49.4757 42.026 49.0821 46.1392 49.9329C50.2525 50.7837 54.0191 52.8404 56.9587 55.8406" stroke="#181830" stroke-width="2" stroke-linecap="round" stroke-linejoin="round"/>
<path d="M68.2878 50.7633L72.9362 60.8H81.9823C82.439 60.7828 82.8899 60.9069 83.2734 61.1554C83.657 61.404 83.9545 61.7648 84.1253 62.1887C84.2961 62.6126 84.3319 63.0789 84.2279 63.5239C84.1238 63.969 83.8849 64.371 83.5439 64.6752L75.6908 72.4165L80.0402 82.4231C80.2311 82.8808 80.2736 83.3868 80.1619 83.8699C80.0502 84.3531 79.7898 84.789 79.4174 85.1164C79.0449 85.4439 78.5792 85.6463 78.0857 85.6952C77.5923 85.7441 77.0959 85.637 76.6664 85.3891L66.1554 79.4661L55.6444 85.3891C55.215 85.637 54.7186 85.7441 54.2251 85.6952C53.7316 85.6463 53.2659 85.4439 52.8935 85.1164C52.521 84.789 52.2606 84.3531 52.1489 83.8699C52.0372 83.3868 52.0798 82.8808 52.2706 82.4231L56.62 72.4165L48.767 64.6752C48.4249 64.3723 48.1847 63.971 48.0794 63.5263C47.9741 63.0816 48.0088 62.6152 48.1788 62.191C48.3487 61.7668 48.6456 61.4055 49.0288 61.1565C49.412 60.9075 49.8628 60.783 50.3195 60.8H59.3807L64.0351 50.7633C64.2421 50.3797 64.5491 50.0592 64.9234 49.8359C65.2978 49.6125 65.7256 49.4946 66.1615 49.4946C66.5974 49.4946 67.0251 49.6125 67.3995 49.8359C67.7738 50.0592 68.0808 50.3797 68.2878 50.7633V50.7633Z" fill="#4A3AFF" stroke="#181830" stroke-width="2" stroke-linecap="round" stroke-linejoin="round"/>
</svg>
