<svg width="32" height="32" viewBox="0 0 32 32" fill="none" xmlns="http://www.w3.org/2000/svg">
<path d="M21.1987 6H2.75248C1.23233 6 2.85404e-06 7.23233 2.85404e-06 8.75248V8.92359C2.85404e-06 10.1237 1.02898 11.0518 2.08743 11.6174C3.47984 12.3615 4.42694 13.8269 4.42694 15.513C4.42694 17.1991 3.47984 18.6645 2.08743 19.4086C1.02898 19.9742 -1.17061e-06 20.9023 0 22.1024L1.69246e-07 22.2759C1.65202e-06 23.7961 1.23233 25.0284 2.75248 25.0284H21.1987V6Z" fill="#4A3AFF"/>
<path d="M32 8.75249C32 7.23234 30.7677 6 29.2476 6H22.2842V25.0284H29.2476C30.7677 25.0284 32.0001 23.7961 32.0001 22.2759V22.1024C32.0001 20.9023 30.9725 19.9744 29.9101 19.4162C28.4986 18.6744 27.5373 17.2048 27.5373 15.513C27.5373 13.8212 28.4985 12.3516 29.9101 11.6098C30.9724 11.0516 32 10.1237 32 8.9236L32 8.75249Z" fill="#4A3AFF"/>
</svg>
