<svg width="251" height="33" viewBox="0 0 251 33" fill="none" xmlns="http://www.w3.org/2000/svg">
<path d="M36.0295 0.145813H4.67814C2.09448 0.145813 4.85075e-06 2.24028 4.85075e-06 4.82394V5.11477C4.85075e-06 7.1545 1.74887 8.73182 3.54782 9.69321C5.91437 10.9579 7.52406 13.4485 7.52406 16.3142C7.52406 19.1798 5.91437 21.6704 3.54782 22.9352C1.74886 23.8965 -1.98958e-06 25.4739 0 27.5136L2.87652e-07 27.8085C2.80778e-06 30.3922 2.09447 32.4866 4.67813 32.4866H36.0295V0.145813Z" fill="#4A3AFF"/>
<path d="M54.3874 4.82397C54.3874 2.2403 52.293 0.145813 49.7093 0.145813H37.8743V32.4866H49.7093C52.293 32.4866 54.3874 30.3922 54.3874 27.8085V27.5136C54.3874 25.4739 52.6409 23.8968 50.8353 22.948C48.4363 21.6874 46.8025 19.1896 46.8025 16.3142C46.8025 13.4388 48.4362 10.941 50.8353 9.68032C52.6409 8.73151 54.3874 7.15451 54.3874 5.11479L54.3874 4.82397Z" fill="#4A3AFF"/>
<path d="M85.8764 18.8547H82.3766C81.7783 22.3246 78.9665 24.8074 75.4068 24.8074C71.1592 24.8074 68.1679 21.3674 68.1679 16.5514C68.1679 11.7952 71.1592 8.35523 75.4068 8.35523C78.9665 8.35523 81.7783 10.8081 82.3766 14.278H85.8764C85.0688 8.98341 80.7613 5.39383 75.3769 5.39383C69.3943 5.39383 64.7578 10.2398 64.7578 16.5514C64.7578 22.893 69.3943 27.7688 75.3769 27.7688C80.7613 27.7688 85.0688 24.1793 85.8764 18.8547ZM102.945 19.3932C102.945 14.6968 99.6243 11.1671 95.1373 11.1671C90.6803 11.1671 87.3599 14.6968 87.3599 19.3932C87.3599 24.0895 90.6803 27.6193 95.1373 27.6193C99.6243 27.6193 102.945 24.0895 102.945 19.3932ZM90.4709 19.3932C90.4709 15.9232 92.5349 13.8592 95.1373 13.8592C97.7697 13.8592 99.8037 15.9232 99.8037 19.3932C99.8037 22.8631 97.7697 24.957 95.1373 24.957C92.5349 24.957 90.4709 22.8332 90.4709 19.3932ZM108.36 18.3761C108.36 15.5643 110.095 13.8293 112.159 13.8293C114.403 13.8293 115.599 15.3549 115.599 18.077V27.3201H118.62V17.0599C118.62 13.261 116.467 11.1671 113.206 11.1671C111.023 11.1671 109.228 12.3337 108.151 14.0985V11.4662H105.339V27.3201H108.36V18.3761ZM126.264 27.3201V14.0387H130.721V11.4662H126.264V10.3295C126.264 8.80393 127.131 8.14584 128.567 8.14584C129.105 8.14584 129.644 8.20566 130.093 8.41506V5.96218C129.494 5.72288 128.776 5.57331 127.909 5.57331C124.888 5.57331 123.242 7.24845 123.242 10.2996V11.4662H119.773V14.0387H123.242V27.3201H126.264ZM145.876 21.9657H142.855C142.376 24.0297 140.821 25.2561 138.547 25.2561C135.885 25.2561 134.15 23.2519 134.09 20.141H145.876C146.385 14.9959 143.274 11.1671 138.518 11.1671C134.15 11.1671 130.95 14.6071 130.95 19.3034C130.95 24.3288 134.06 27.6193 138.607 27.6193C142.346 27.6193 145.068 25.4655 145.876 21.9657ZM138.458 13.4405C140.911 13.4405 142.496 15.2352 142.646 18.1368H134.09C134.27 15.3549 136.035 13.4405 138.458 13.4405ZM151.424 19.2137C151.424 15.7139 153.907 14.1883 157.317 14.3977V11.3166C154.685 11.1371 152.321 12.6328 151.215 14.8165V11.4662H148.403V27.3201H151.424V19.2137ZM172.969 21.9657H169.948C169.469 24.0297 167.914 25.2561 165.64 25.2561C162.978 25.2561 161.243 23.2519 161.183 20.141H172.969C173.477 14.9959 170.367 11.1671 165.61 11.1671C161.243 11.1671 158.042 14.6071 158.042 19.3034C158.042 24.3288 161.153 27.6193 165.7 27.6193C169.439 27.6193 172.161 25.4655 172.969 21.9657ZM165.551 13.4405C168.003 13.4405 169.589 15.2352 169.738 18.1368H161.183C161.363 15.3549 163.128 13.4405 165.551 13.4405ZM178.517 18.3761C178.517 15.5643 180.252 13.8293 182.316 13.8293C184.559 13.8293 185.756 15.3549 185.756 18.077V27.3201H188.777V17.0599C188.777 13.261 186.623 11.1671 183.363 11.1671C181.179 11.1671 179.384 12.3337 178.307 14.0985V11.4662H175.496V27.3201H178.517V18.3761ZM205.753 20.8888H202.582C202.253 23.1323 200.877 24.957 198.454 24.957C195.882 24.957 194.147 22.6537 194.147 19.3932C194.147 16.1027 195.882 13.8592 198.454 13.8592C200.847 13.8592 202.283 15.6241 202.582 17.8975H205.753C205.215 13.9191 202.433 11.1671 198.424 11.1671C194.117 11.1671 191.036 14.637 191.036 19.3932C191.036 24.1194 194.117 27.6492 198.424 27.6492C202.433 27.6492 205.245 24.8673 205.753 20.8888ZM222.196 21.9657H219.175C218.697 24.0297 217.141 25.2561 214.868 25.2561C212.206 25.2561 210.471 23.2519 210.411 20.141H222.196C222.705 14.9959 219.594 11.1671 214.838 11.1671C210.471 11.1671 207.27 14.6071 207.27 19.3034C207.27 24.3288 210.381 27.6193 214.928 27.6193C218.667 27.6193 221.389 25.4655 222.196 21.9657ZM214.778 13.4405C217.231 13.4405 218.816 15.2352 218.966 18.1368H210.411C210.59 15.3549 212.355 13.4405 214.778 13.4405ZM234.786 27.3201L240.14 18.765L245.584 27.3201H249.593L242.623 16.4318L249.234 5.84253H245.435L240.379 13.9191L235.384 5.84253H231.286L237.897 16.3121L230.807 27.3201H234.786Z" fill="#181830"/>
</svg>
