<svg width="250" height="33" viewBox="0 0 250 33" fill="none" xmlns="http://www.w3.org/2000/svg">
<path d="M36.0295 0.145813H4.67814C2.09448 0.145813 4.85075e-06 2.24028 4.85075e-06 4.82394V5.11477C4.85075e-06 7.1545 1.74887 8.73182 3.54782 9.69321C5.91437 10.9579 7.52406 13.4485 7.52406 16.3142C7.52406 19.1798 5.91437 21.6704 3.54782 22.9352C1.74886 23.8965 -1.98958e-06 25.4739 0 27.5136L2.87652e-07 27.8085C2.80778e-06 30.3922 2.09447 32.4866 4.67813 32.4866H36.0295V0.145813Z" fill="#4A3AFF"/>
<path d="M54.3874 4.82397C54.3874 2.2403 52.293 0.145813 49.7093 0.145813H37.8743V32.4866H49.7093C52.293 32.4866 54.3874 30.3922 54.3874 27.8085V27.5136C54.3874 25.4739 52.6409 23.8968 50.8353 22.948C48.4363 21.6874 46.8025 19.1896 46.8025 16.3142C46.8025 13.4388 48.4362 10.941 50.8353 9.68032C52.6409 8.73151 54.3874 7.15451 54.3874 5.11479L54.3874 4.82397Z" fill="#4A3AFF"/>
<path d="M85.2081 18.8547H81.7083C81.1101 22.3246 78.2982 24.8074 74.7386 24.8074C70.4909 24.8074 67.4996 21.3674 67.4996 16.5514C67.4996 11.7952 70.4909 8.35523 74.7386 8.35523C78.2982 8.35523 81.1101 10.8081 81.7083 14.278H85.2081C84.4005 8.98341 80.093 5.39383 74.7087 5.39383C68.726 5.39383 64.0895 10.2398 64.0895 16.5514C64.0895 22.893 68.726 27.7688 74.7087 27.7688C80.093 27.7688 84.4005 24.1793 85.2081 18.8547ZM102.276 19.3932C102.276 14.6968 98.956 11.1671 94.469 11.1671C90.012 11.1671 86.6916 14.6968 86.6916 19.3932C86.6916 24.0895 90.012 27.6193 94.469 27.6193C98.956 27.6193 102.276 24.0895 102.276 19.3932ZM89.8026 19.3932C89.8026 15.9232 91.8666 13.8592 94.469 13.8592C97.1014 13.8592 99.1355 15.9232 99.1355 19.3932C99.1355 22.8631 97.1014 24.957 94.469 24.957C91.8666 24.957 89.8026 22.8332 89.8026 19.3932ZM107.692 18.3761C107.692 15.5643 109.427 13.8293 111.491 13.8293C113.734 13.8293 114.931 15.3549 114.931 18.077V27.3201H117.952V17.0599C117.952 13.261 115.798 11.1671 112.538 11.1671C110.354 11.1671 108.559 12.3337 107.483 14.0985V11.4662H104.671V27.3201H107.692V18.3761ZM125.595 27.3201V14.0387H130.052V11.4662H125.595V10.3295C125.595 8.80393 126.463 8.14584 127.899 8.14584C128.437 8.14584 128.976 8.20566 129.424 8.41506V5.96218C128.826 5.72288 128.108 5.57331 127.241 5.57331C124.219 5.57331 122.574 7.24845 122.574 10.2996V11.4662H119.104V14.0387H122.574V27.3201H125.595ZM145.208 21.9657H142.187C141.708 24.0297 140.153 25.2561 137.879 25.2561C135.217 25.2561 133.482 23.2519 133.422 20.141H145.208C145.716 14.9959 142.605 11.1671 137.849 11.1671C133.482 11.1671 130.281 14.6071 130.281 19.3034C130.281 24.3288 133.392 27.6193 137.939 27.6193C141.678 27.6193 144.4 25.4655 145.208 21.9657ZM137.789 13.4405C140.242 13.4405 141.828 15.2352 141.977 18.1368H133.422C133.602 15.3549 135.366 13.4405 137.789 13.4405ZM150.756 19.2137C150.756 15.7139 153.239 14.1883 156.649 14.3977V11.3166C154.016 11.1371 151.653 12.6328 150.546 14.8165V11.4662H147.735V27.3201H150.756V19.2137ZM172.301 21.9657H169.279C168.801 24.0297 167.245 25.2561 164.972 25.2561C162.31 25.2561 160.575 23.2519 160.515 20.141H172.301C172.809 14.9959 169.698 11.1671 164.942 11.1671C160.575 11.1671 157.374 14.6071 157.374 19.3034C157.374 24.3288 160.485 27.6193 165.032 27.6193C168.771 27.6193 171.493 25.4655 172.301 21.9657ZM164.882 13.4405C167.335 13.4405 168.92 15.2352 169.07 18.1368H160.515C160.694 15.3549 162.459 13.4405 164.882 13.4405ZM177.849 18.3761C177.849 15.5643 179.584 13.8293 181.648 13.8293C183.891 13.8293 185.088 15.3549 185.088 18.077V27.3201H188.109V17.0599C188.109 13.261 185.955 11.1671 182.695 11.1671C180.511 11.1671 178.716 12.3337 177.639 14.0985V11.4662H174.827V27.3201H177.849V18.3761ZM205.085 20.8888H201.914C201.585 23.1323 200.209 24.957 197.786 24.957C195.214 24.957 193.479 22.6537 193.479 19.3932C193.479 16.1027 195.214 13.8592 197.786 13.8592C200.179 13.8592 201.615 15.6241 201.914 17.8975H205.085C204.546 13.9191 201.765 11.1671 197.756 11.1671C193.449 11.1671 190.368 14.637 190.368 19.3932C190.368 24.1194 193.449 27.6492 197.756 27.6492C201.765 27.6492 204.576 24.8673 205.085 20.8888ZM221.528 21.9657H218.507C218.028 24.0297 216.473 25.2561 214.2 25.2561C211.537 25.2561 209.802 23.2519 209.742 20.141H221.528C222.037 14.9959 218.926 11.1671 214.17 11.1671C209.802 11.1671 206.602 14.6071 206.602 19.3034C206.602 24.3288 209.713 27.6193 214.259 27.6193C217.998 27.6193 220.721 25.4655 221.528 21.9657ZM214.11 13.4405C216.563 13.4405 218.148 15.2352 218.298 18.1368H209.742C209.922 15.3549 211.687 13.4405 214.11 13.4405ZM234.117 27.3201L239.472 18.765L244.916 27.3201H248.924L241.955 16.4318L248.565 5.84253H244.766L239.711 13.9191L234.716 5.84253H230.618L237.228 16.3121L230.139 27.3201H234.117Z" fill="white"/>
</svg>
