<?xml version="1.0" encoding="utf-8"?>
<!-- Generator: Adobe Illustrator 23.0.3, SVG Export Plug-In . SVG Version: 6.00 Build 0)  -->
<svg version="1.1"
	 id="svg8" xmlns:cc="http://creativecommons.org/ns#" xmlns:dc="http://purl.org/dc/elements/1.1/" xmlns:inkscape="http://www.inkscape.org/namespaces/inkscape" xmlns:rdf="http://www.w3.org/1999/02/22-rdf-syntax-ns#" xmlns:sodipodi="http://sodipodi.sourceforge.net/DTD/sodipodi-0.dtd" xmlns:svg="http://www.w3.org/2000/svg"
	 xmlns="http://www.w3.org/2000/svg" xmlns:xlink="http://www.w3.org/1999/xlink" x="0px" y="0px"
	 viewBox="79.055 -131.337 841.89 595.275" enable-background="new 79.055 -131.337 841.89 595.275" xml:space="preserve">
<sodipodi:namedview  bordercolor="#666666" borderopacity="1.0" fit-margin-bottom="0" fit-margin-left="0" fit-margin-right="0" fit-margin-top="0" id="base" inkscape:current-layer="layer1" inkscape:cx="3981.6645" inkscape:cy="-851.80289" inkscape:document-units="px" inkscape:pageopacity="0.0" inkscape:pageshadow="2" inkscape:window-height="1017" inkscape:window-maximized="1" inkscape:window-width="1920" inkscape:window-x="1912" inkscape:window-y="-8" inkscape:zoom="0.12374369" pagecolor="#ffffff" showgrid="false" units="px">
	</sodipodi:namedview>
<g id="layer1" transform="translate(136.26131,140.70228)" inkscape:groupmode="layer" inkscape:label="Layer 1">
	<g id="g256" transform="matrix(0.23219248,0,0,0.23219248,-136.26131,-140.70228)">
		<path id="path254" inkscape:connector-curvature="0" fill="#9147FE" d="M3938.027,975.365h-259.728V651.516h-64.932v323.849
			h-259.734V165.919h259.734v226.552h194.795l129.864,129.538V975.365 M3289.024,651.516h-259.727v64.935h259.727v259.075h-389.396
			l-129.871-129.534V522.009l129.871-129.538h389.396V651.516 M2704.927,651.516h-227.265v64.935h227.265v259.075h-356.934
			l-129.871-129.534V165.919h259.734v226.552h227.265L2704.927,651.516 M2153.292,327.7h-259.731V165.919h259.731V327.7
			 M2153.292,975.365h-259.731V392.471h259.731V975.365 M1828.632,975.365h-778.641L920.124,845.83V392.471h259.734v323.815h64.928
			V392.471h259.734v323.815h64.928V392.471h259.734L1828.632,975.365 M855.293,651.516H628.287v64.935h227.261v259.075H498.424
			L368.56,845.991V165.919h259.727v226.552h227.261L855.293,651.516 M3840.693,327.7H3678.36V100.987h-356.187L3158.313,327.7
			h-291.121l-97.401,97.136V327.7h-227.265V100.987h-713.732V327.7H824.452L660.753,100.987H303.625v777.238l454.298,453.232
			h454.305v-129.541l129.864,129.541h876.1v-129.541l129.87,129.541h421.764v-129.541l129.864,129.541h811.268l292.197-291.484
			V489.606L3840.693,327.7"/>
	</g>
	<g id="g262" transform="matrix(0.23219248,0,0,0.23219248,-136.26131,-140.70228)">
		<path id="path260" inkscape:connector-curvature="0" fill="#FFFFFF" d="M3353.923,975.365h259.606V651.516h64.898v323.849h259.6
			V522.009l-129.803-129.538h-194.695V165.792h-259.6v809.573l0,0 M2218.19,845.83l129.769,129.534h356.967V716.286h-227.131
			v-64.771h227.131V392.471h-227.131V165.792H2218.19V845.83L2218.19,845.83 M2769.825,845.83l129.803,129.534h389.396V716.286
			h-259.599v-64.771h259.599V392.471h-389.396l-129.803,129.538V845.83L2769.825,845.83 M1893.692,165.792h259.603V327.7h-259.603
			V165.792 M855.293,392.471H628.126V165.792h-259.6V845.83l129.8,129.534h356.967V716.286H628.126v-64.771h227.167V392.471
			 M920.192,845.83l129.766,129.534h778.836V392.471h-259.603v323.815h-64.928V392.471h-259.573v323.815h-64.895V392.471H920.192
			V845.83L920.192,845.83 M1893.692,392.471h259.603v582.894h-259.603V392.471"/>
	</g>
</g>
</svg>
